<svg id="Layer_1" data-name="Layer 1" xmlns="http://www.w3.org/2000/svg" viewBox="0 0 1409.48 1409.47"><defs><style>.cls-1{fill:#150256;}</style></defs><g id="Line"><path class="cls-1" d="M527.89,1728.74a206,206,0,0,1-144.47-58.85,210.42,210.42,0,0,1-64.15-153V534.07c0-118.63,96.17-214.81,214.8-214.81h979.86c118.57.17,214.65,96.24,214.81,214.81v979.86c-.32,118.5-96.31,214.48-214.81,214.81Zm6.18-1350.63a154.49,154.49,0,0,0-156,153c0,1,0,2,0,3v982.8a153.57,153.57,0,0,0,46.2,110.94,147.16,147.16,0,0,0,108.87,42.08h980.74a154.5,154.5,0,0,0,156-153c0-1,0-2,0-3V534.07a154.48,154.48,0,0,0-153-156H534.07Z" transform="translate(-319.26 -319.26)"/><path class="cls-1" d="M796,1581a66.47,66.47,0,0,1-42.37-15,759.32,759.32,0,0,1-216-246.29,740,740,0,0,1-91.8-340.45v-3.82a69.74,69.74,0,0,1,68.84-70.62h1.78l227.16,5.88a73.57,73.57,0,0,1,69.74,67.09,385.14,385.14,0,0,0,46.49,165.37,448.13,448.13,0,0,0,104.46,120.94,69.44,69.44,0,0,1,15,92.1L856,1547.18a33.16,33.16,0,0,1-5,5.89,67.71,67.71,0,0,1-45.31,27.07A53.71,53.71,0,0,1,796,1581ZM515.53,963.68a10.59,10.59,0,0,0-10.94,10.22,10,10,0,0,0,.06,1.55v2.94A680.87,680.87,0,0,0,589.1,1290.3a706.3,706.3,0,0,0,201,229.52,8,8,0,0,0,7.06,2.35,10.94,10.94,0,0,0,5.3-2.35,36.07,36.07,0,0,1,7.65-9.71l120.06-185.68a11.76,11.76,0,0,0-2.36-14.12,503.35,503.35,0,0,1-117.7-137.42A436.88,436.88,0,0,1,755.94,982.8a15.32,15.32,0,0,0-12.65-13.24Zm740.35,614.4a51.24,51.24,0,0,1-11.48,0,68.29,68.29,0,0,1-47.38-33.84l-122.7-189.79a69.2,69.2,0,0,1-10.89-49.14,63.58,63.58,0,0,1,29.43-44.14,367,367,0,0,0,102.4-117.7,379.9,379.9,0,0,0,46.49-163.61,73.86,73.86,0,0,1,62.09-72.09h3.23l230.41-5.89a69.75,69.75,0,0,1,70.62,68.85v1.78a737.16,737.16,0,0,1-92.11,341,731.1,731.1,0,0,1-212.15,243.94,29.41,29.41,0,0,1-11.18,9.12A65.64,65.64,0,0,1,1255.88,1578.08Zm55-611.46c-6.18,1.47-11.77,6.77-11.77,11.77v1.47a435.78,435.78,0,0,1-53.85,189.5A423.42,423.42,0,0,1,1125.52,1308a8.83,8.83,0,0,0-2.59,12.22,7.54,7.54,0,0,0,.53.73l123.88,191.85c2.94,5,6.18,6.18,7.36,6.18a5,5,0,0,0,4.71,0,22.11,22.11,0,0,1,4.7-4.41,694.69,694.69,0,0,0,285.14-542.9A10.59,10.59,0,0,0,1539,960.68a10,10,0,0,0-1.55.06h-2.94Zm-41.2,11.77Zm-50.9-93.57a73.48,73.48,0,0,1-29.43-5.89A438.47,438.47,0,0,0,1034.6,843a436.7,436.7,0,0,0-166.55,33,70.62,70.62,0,0,1-93.57-31.48l-111.23-196a71.2,71.2,0,0,1,25-93.86A29.28,29.28,0,0,1,700.33,550a754.15,754.15,0,0,1,340.74-74.74,780.39,780.39,0,0,1,321,76.5A66.23,66.23,0,0,1,1398,592a70.63,70.63,0,0,1-2.65,50.9,40.87,40.87,0,0,1-2.94,8.54L1280.59,848.92A68.88,68.88,0,0,1,1218.8,884.82ZM1037.25,784.18a491.9,491.9,0,0,1,176.55,40.9,12.35,12.35,0,0,0,14.71-4.11l109.76-193.62a29.74,29.74,0,0,1,2.64-8,10.86,10.86,0,0,0,0-8.83,8.79,8.79,0,0,0-4.41-5.29,724.71,724.71,0,0,0-297.2-71.21,695.34,695.34,0,0,0-318.67,70.62h-3.24a11.48,11.48,0,0,0-1.76,13.54L827.44,815.67l1.47,2.94c2.36,5.89,13.25,3.53,18.54,0A495.08,495.08,0,0,1,1037.25,784.18Z" transform="translate(-319.26 -319.26)"/><path class="cls-1" d="M1025.47,1146.11a120.64,120.64,0,1,1,120.65-120.64h0A120.93,120.93,0,0,1,1025.47,1146.11Zm0-182.43a61.79,61.79,0,1,0,61.8,61.79A61.79,61.79,0,0,0,1025.47,963.68Z" transform="translate(-319.26 -319.26)"/></g></svg>