<svg id="Layer_1" data-name="Layer 1" xmlns="http://www.w3.org/2000/svg" viewBox="0 0 2048 2048"><defs><style>.cls-1{fill:#150256;}.cls-2{fill:none;}</style></defs><path class="cls-1" d="M1760,328H288a32,32,0,0,0-32,32V1463.25a32,32,0,0,0,32,32H777.33V1672H656a32,32,0,0,0,0,64h736a32,32,0,0,0,0-64H1270.67V1495.25H1760a32,32,0,0,0,32-32V360A32,32,0,0,0,1760,328ZM1206.67,1672H841.33V1495.25h365.34ZM1728,1431.25H320V392H1728Z" transform="translate(0)"/><path class="cls-1" d="M619.79,1008.87H708a339.62,339.62,0,0,0,32,77.2l-62.2,62.2-.18.18a32,32,0,0,0,0,45.26h0l83.45,83.45.18.18a32,32,0,0,0,45.25,0h0L868.88,1215a339.92,339.92,0,0,0,77.19,32v88.22a32,32,0,0,0,32,32h118.26a32,32,0,0,0,32-32V1247a340,340,0,0,0,77.2-32l62.2,62.19.18.19a32,32,0,0,0,45.25,0h0l83.45-83.44.18-.18a32,32,0,0,0,0-45.25h0l-62.4-62.38a339.73,339.73,0,0,0,32-77.19h88.22a32,32,0,0,0,32-32V858.61a32,32,0,0,0-32-32h-88.2a341.28,341.28,0,0,0-32-77.2l62.19-62.19.19-.18a32,32,0,0,0,0-45.25h0l-83.44-83.45-.18-.18a32,32,0,0,0-45.25,0h0l-62.39,62.39a343.78,343.78,0,0,0-37.65-18.39,340.33,340.33,0,0,0-39.54-13.6h0V500.34a32,32,0,0,0-32-32H978.06a32,32,0,0,0-32,32v88.22a341.93,341.93,0,0,0-77.19,32l-62.21-62.21-.17-.18a32,32,0,0,0-45.25,0h0L677.79,641.6l-.18.18a32,32,0,0,0,0,45.25h0L740,749.42a342.12,342.12,0,0,0-32,77.19h-88.2a32,32,0,0,0-32,32V976.87A32,32,0,0,0,619.79,1008.87Zm32-118.26h81.49A32,32,0,0,0,765,862.87a275.65,275.65,0,0,1,42-100.29h0a32,32,0,0,0-4.35-41l-57.2-57.2L783.83,626l57.65,57.66h0a32,32,0,0,0,41.73,3A275.52,275.52,0,0,1,984,645.13l-6-31.38,6.16,31.5a32,32,0,0,0,25.93-31.92v-81h54.26v81.5a32,32,0,0,0,27.74,31.71,275,275,0,0,1,51.29,15.61h0a276.72,276.72,0,0,1,49,26.39h0a32,32,0,0,0,41-4.35l57.2-57.2L1329,664.37l-57.73,57.73h0a32,32,0,0,0-3,41.73,275.49,275.49,0,0,1,41.54,100.83l31.37-6-31.41,6.08a32,32,0,0,0,31.92,25.93h81v54.26h-81.5a32,32,0,0,0-31.72,27.74,273.26,273.26,0,0,1-15.6,51.29,276.72,276.72,0,0,1-26.39,49h0a32,32,0,0,0,4.35,41l57.19,57.2-38.37,38.38L1233,1151.89h0a32,32,0,0,0-41.73-3,275.12,275.12,0,0,1-100.84,41.54l6,31.37-6.08-31.41a32,32,0,0,0-25.92,31.92v81h-54.36v-81.5a32,32,0,0,0-27.74-31.71,275.23,275.23,0,0,1-100.29-42h0a32,32,0,0,0-41,4.35l-57.19,57.19-38.36-38.54,57.64-57.65h0a32,32,0,0,0,3-41.73,275.39,275.39,0,0,1-41.54-100.84l-31.38,6,31.42-6.08a32,32,0,0,0-31.92-25.92h-81Z" transform="translate(0)"/><path class="cls-1" d="M1037.2,1119.38c109.89-2.06,197.3-92.81,195.23-202.7A199,199,0,0,0,1037.2,721.45h0C927.32,723.51,839.91,814.26,842,924.15A199,199,0,0,0,1037.2,1119.38ZM941.77,825a135,135,0,1,1-39.57,95.43A135,135,0,0,1,941.77,825Z" transform="translate(0)"/><rect class="cls-2" width="2048" height="2048"/></svg>