<svg id="Layer_1" data-name="Layer 1" xmlns="http://www.w3.org/2000/svg" viewBox="0 0 223.69 185.89"><defs><style>.cls-1{fill:#150256;}.cls-2{fill:none;}</style></defs><path class="cls-1" d="M51.93.53H3.8a1,1,0,0,0-1,1V37.65a1,1,0,0,0,1,1.05h16v5.78h-4a1,1,0,0,0,0,2.09H39.9a1,1,0,1,0,0-2.09h-4V38.7h16a1,1,0,0,0,1-1.05V1.57A1,1,0,0,0,51.93.53ZM33.84,44.48h-12V38.7h12Zm17-7.88h-46v-34h46Z" transform="translate(-2.75 -0.53)"/><path class="cls-1" d="M14.22,22.59H17.1a11.18,11.18,0,0,0,1,2.53l-2,2h0a1,1,0,0,0,0,1.48h0l2.73,2.73h0a1,1,0,0,0,1.48,0h0l2-2a11.65,11.65,0,0,0,2.53,1.05v2.88a1,1,0,0,0,1,1.05H29.8a1,1,0,0,0,1.05-1.05V30.38a11.37,11.37,0,0,0,2.52-1.05l2,2h0a1,1,0,0,0,1.48,0h0l2.73-2.73h0a1,1,0,0,0,0-1.48h0l-2-2a10.74,10.74,0,0,0,1.05-2.53h2.89a1,1,0,0,0,1-1V17.68a1,1,0,0,0-1-1.05H38.63a10.5,10.5,0,0,0-1.05-2.52l2-2h0a1,1,0,0,0,0-1.48h0L36.9,7.86h0a1.06,1.06,0,0,0-1.48,0h0l-2,2q-.6-.33-1.23-.6a11.52,11.52,0,0,0-1.29-.44h0V6a1,1,0,0,0-1.05-1H25.93a1,1,0,0,0-1,1V8.85a11.14,11.14,0,0,0-2.53,1l-2-2h0a1.06,1.06,0,0,0-1.48,0h0l-2.73,2.73h0a1,1,0,0,0,0,1.48h0l2,2a11.37,11.37,0,0,0-1,2.52H14.22a1,1,0,0,0-1.05,1.05v3.87A1,1,0,0,0,14.22,22.59Zm1-3.86h2.67a1.05,1.05,0,0,0,1-.91,8.88,8.88,0,0,1,1.37-3.28h0a1.06,1.06,0,0,0-.14-1.34l-1.87-1.87,1.25-1.26L21.47,12h0a1,1,0,0,0,1.36.1,9,9,0,0,1,3.3-1.36l-.2-1,.2,1a1,1,0,0,0,.85-1V7h1.78V9.67a1,1,0,0,0,.9,1,9.6,9.6,0,0,1,1.68.51h0a9.46,9.46,0,0,1,1.6.86h0a1,1,0,0,0,1.34-.14l1.87-1.87,1.26,1.26-1.89,1.88h0a1.05,1.05,0,0,0-.1,1.37,9,9,0,0,1,1.36,3.3l1-.2-1,.2a1,1,0,0,0,1,.85h2.65V20.5H37.81a1,1,0,0,0-1,.91,10.14,10.14,0,0,1-.51,1.68,9.15,9.15,0,0,1-.86,1.6h0A1,1,0,0,0,35.54,26l1.87,1.87-1.26,1.25-1.88-1.88h0a1.05,1.05,0,0,0-1.37-.1,8.91,8.91,0,0,1-3.29,1.36l.19,1-.2-1a1,1,0,0,0-.84,1v2.65H27V29.56a1,1,0,0,0-.91-1,9,9,0,0,1-3.28-1.38h0a1,1,0,0,0-1.34.15l-1.87,1.87L18.33,27.9,20.21,26h0a1,1,0,0,0,.1-1.36A9,9,0,0,1,19,21.35l-1,.2,1-.2a1,1,0,0,0-1-.85H15.26Z" transform="translate(-2.75 -0.53)"/><path class="cls-1" d="M27.87,26.12a6.51,6.51,0,0,0,0-13h0a6.51,6.51,0,0,0,0,13Zm-3.12-9.63a4.41,4.41,0,1,1-1.3,3.12,4.42,4.42,0,0,1,1.3-3.12Z" transform="translate(-2.75 -0.53)"/><rect class="cls-2" x="58.88" y="21.08" width="164.81" height="164.81"/></svg>