<svg id="Layer_1" data-name="Layer 1" xmlns="http://www.w3.org/2000/svg" viewBox="0 0 2711.44 2711.44"><defs><style>.cls-1{fill:#150256;}.cls-2{fill:none;}</style></defs><path class="cls-1" d="M1998.45,103.94H49.6A42.37,42.37,0,0,0,7.23,146.31V1607a42.37,42.37,0,0,0,42.37,42.36H697.44v234H536.81a42.37,42.37,0,1,0,0,84.73h974.42a42.37,42.37,0,1,0,0-84.73H1350.6v-234h647.85a42.37,42.37,0,0,0,42.36-42.36V146.31A42.37,42.37,0,0,0,1998.45,103.94ZM1265.87,1883.33H782.18v-234h483.69Zm690.21-318.69H92v-1376H1956.08Z" transform="translate(331.7 319.72)"/><path class="cls-1" d="M471.39,997.3H588.17a449.65,449.65,0,0,0,42.36,102.21l-82.35,82.35-.24.24a42.36,42.36,0,0,0,0,59.91h0L658.43,1352.5l.24.24a42.36,42.36,0,0,0,59.9,0h0l82.61-82.6a450.17,450.17,0,0,0,102.19,42.37v116.8a42.37,42.37,0,0,0,42.37,42.36h156.57a42.37,42.37,0,0,0,42.36-42.36V1312.53a450.94,450.94,0,0,0,102.21-42.36l82.35,82.33.24.26a42.37,42.37,0,0,0,59.91,0h0l110.48-110.47.24-.24a42.37,42.37,0,0,0,0-59.91h0l-82.61-82.59a450.79,450.79,0,0,0,42.36-102.19h116.8A42.37,42.37,0,0,0,1619,955V798.37A42.37,42.37,0,0,0,1576.65,756H1459.88a451.61,451.61,0,0,0-42.37-102.21l82.34-82.33.25-.24a42.37,42.37,0,0,0,0-59.92h0L1389.63,400.81l-.24-.24a42.36,42.36,0,0,0-59.91,0h0l-82.6,82.6A454.62,454.62,0,0,0,1197,458.83a447.24,447.24,0,0,0-52.35-18h0V324a42.37,42.37,0,0,0-42.36-42.37H945.72A42.37,42.37,0,0,0,903.36,324v116.8a452,452,0,0,0-102.2,42.36L718.8,400.84l-.23-.24a42.36,42.36,0,0,0-59.91,0h0L548.18,511.06l-.24.24a42.36,42.36,0,0,0,0,59.9h0l82.59,82.61A451.89,451.89,0,0,0,588.17,756H471.39A42.37,42.37,0,0,0,429,798.37V954.94A42.37,42.37,0,0,0,471.39,997.3Zm42.37-156.57H621.65a42.35,42.35,0,0,0,42-36.72,364.52,364.52,0,0,1,55.61-132.78h0A42.36,42.36,0,0,0,713.49,617l-75.73-75.73,50.81-50.82,76.33,76.34h0a42.36,42.36,0,0,0,55.25,4,364.57,364.57,0,0,1,133.48-55l-8-41.54,8.16,41.7a42.37,42.37,0,0,0,34.33-42.26V366.39H1060v107.9a42.36,42.36,0,0,0,36.72,42,363.56,363.56,0,0,1,67.91,20.67h0a366.29,366.29,0,0,1,64.87,34.94h0a42.36,42.36,0,0,0,54.28-5.76l75.73-75.73,50.82,50.81-76.44,76.43h0a42.38,42.38,0,0,0-4,55.25,364.6,364.6,0,0,1,55,133.5l41.53-8-41.58,8.05a42.36,42.36,0,0,0,42.26,34.33h107.24v71.84H1426.47a42.36,42.36,0,0,0-42,36.73,363.4,363.4,0,0,1-20.65,67.9,367.59,367.59,0,0,1-34.94,64.87h0a42.36,42.36,0,0,0,5.76,54.29l75.71,75.73-50.8,50.81-76.32-76.33h0a42.38,42.38,0,0,0-55.25-4,364.57,364.57,0,0,1-133.51,55l8,41.53-8-41.58a42.36,42.36,0,0,0-34.32,42.26v107.24h-72V1279.22a42.37,42.37,0,0,0-36.73-42,364.53,364.53,0,0,1-132.77-55.6h0a42.36,42.36,0,0,0-54.29,5.76l-75.71,75.71-50.79-51,76.31-76.33h0a42.36,42.36,0,0,0,4-55.25,364.58,364.58,0,0,1-55-133.5L621.54,955l41.6-8.05a42.38,42.38,0,0,0-42.26-34.32H513.64Z" transform="translate(331.7 319.72)"/><path class="cls-1" d="M1024,1140.08c145.48-2.73,261.21-122.88,258.48-268.36C1279.84,730.08,1165.66,615.9,1024,613.24h0C878.54,616,762.82,736.12,765.54,881.6,768.2,1023.24,882.38,1137.42,1024,1140.08ZM897.68,750.31a178.72,178.72,0,1,1-52.39,126.34,178.72,178.72,0,0,1,52.39-126.34Z" transform="translate(331.7 319.72)"/><rect class="cls-2" width="2711.44" height="2711.44"/></svg>