<svg id="Layer_1" data-name="Layer 1" xmlns="http://www.w3.org/2000/svg" viewBox="0 0 1642.72 1394.54"><defs><style>.cls-1{fill:#150256;}</style></defs><g id="Line"><path class="cls-1" d="M935.36,1700.59h-5.9a283,283,0,0,1-115.53-26.3l-73.56-32.5A233.13,233.13,0,0,0,577,1628.5l-67.07,20.38V1192.41H648.78l103.4-68h381.14a121.15,121.15,0,0,1,120.84,113.75l170.77-106.36A125.37,125.37,0,1,1,1563.2,1341h0L1087.52,1654.2A272.71,272.71,0,0,1,935.36,1700.59Zm-294-140a285.84,285.84,0,0,1,123.5,27.77l73,32.21a229.07,229.07,0,0,0,91.6,21h5.9a217.84,217.84,0,0,0,120-36.64L1530.7,1292a65.89,65.89,0,0,0,19-91.23l-.64-1a66.78,66.78,0,0,0-42.25-29.54,68.26,68.26,0,0,0-49.93,10l-234.3,146a121.46,121.46,0,0,1-55.25,34.57h0a113.94,113.94,0,0,1-33.38,4.72H764v-59.09h369.32a64.34,64.34,0,0,0,10.93,0l38.41-23.93a61.43,61.43,0,0,0,12.7-37.23,62.93,62.93,0,0,0-62-61.75H769.91l-103.41,68H569v317.91A301.41,301.41,0,0,1,641.39,1560.54Z" transform="translate(-202.64 -326.73)"/><path class="cls-1" d="M539.46,1721.27H232.19a29.55,29.55,0,0,1-29.55-29.55V1115.59a29.54,29.54,0,0,1,29.55-29.54H406.5A162.79,162.79,0,0,1,569,1248.54v443.18A29.54,29.54,0,0,1,539.46,1721.27Zm-277.73-59.09H509.91V1248.54a102.52,102.52,0,0,0-101.63-103.4H261.73Z" transform="translate(-202.64 -326.73)"/><path class="cls-1" d="M554.23,933.89a140.09,140.09,0,0,1-24.52-2.37A125.27,125.27,0,0,1,484.8,704L960.48,393.5a274.83,274.83,0,0,1,152.16-46.09h5.9a283,283,0,0,1,115.53,26.3l73.56,32.2A231.63,231.63,0,0,0,1471,419.5l67.07-20.09V855.59H1398.93l-106.36,68H911.73A121.14,121.14,0,0,1,790.89,808.61L623.07,913.21A123.85,123.85,0,0,1,554.23,933.89ZM1112.64,406.5a217.84,217.84,0,0,0-120,36.64L517.3,753.37a65.28,65.28,0,0,0-29.55,42,68.22,68.22,0,0,0,10.05,49.93,66.79,66.79,0,0,0,42.25,29.55,67.93,67.93,0,0,0,49.93-10l234-146a124.09,124.09,0,0,1,49-29.55l7.09-4.43v2.07a120.63,120.63,0,0,1,29.55-3.55H1284v59.09H911.73a68.22,68.22,0,0,0-13.59,1.48l-34,21.27a61.74,61.74,0,0,0-14.48,39.3,62.93,62.93,0,0,0,62.05,62h363.7l106.36-67.95H1479v-320a290.75,290.75,0,0,1-195.89-18.9l-73-31.91a224.57,224.57,0,0,0-91.6-21.28Z" transform="translate(-202.64 -326.73)"/><path class="cls-1" d="M1815.81,959H1508.54A29.55,29.55,0,0,1,1479,929.46V492.19a165.45,165.45,0,0,1,165.45-165.46h171.36a29.55,29.55,0,0,1,29.55,29.55V929.46A29.55,29.55,0,0,1,1815.81,959Zm-277.72-59.09h248.18V385.82H1644.45a106.66,106.66,0,0,0-106.36,106.37Z" transform="translate(-202.64 -326.73)"/></g></svg>