<svg id="Layer_1" data-name="Layer 1" xmlns="http://www.w3.org/2000/svg" xmlns:xlink="http://www.w3.org/1999/xlink" viewBox="0 0 54.41 58.06"><defs><style>.cls-1{fill:#150256;}</style></defs><path class="cls-1" d="M19.44,22.36h1.81A7.41,7.41,0,0,0,21.91,24l-1.28,1.28h0a.65.65,0,0,0,0,.93h0l1.72,1.71h0a.67.67,0,0,0,.93,0h0l1.28-1.29a6.68,6.68,0,0,0,1.59.66v1.82a.67.67,0,0,0,.66.66h2.43a.66.66,0,0,0,.66-.66V27.26a6.51,6.51,0,0,0,1.59-.66l1.28,1.28h0a.67.67,0,0,0,.93,0h0l1.72-1.72h0a.65.65,0,0,0,0-.93h0L34.14,24a6.93,6.93,0,0,0,.66-1.59h1.81a.65.65,0,0,0,.66-.65V19.27a.66.66,0,0,0-.66-.66H34.8A6.61,6.61,0,0,0,34.14,17l1.28-1.28h0a.65.65,0,0,0,0-.93h0l-1.71-1.72h0a.65.65,0,0,0-.93,0h0l-1.28,1.28a7.76,7.76,0,0,0-.77-.37,6.1,6.1,0,0,0-.82-.28h0V11.9a.66.66,0,0,0-.66-.66H26.81a.67.67,0,0,0-.66.66v1.82a7.09,7.09,0,0,0-1.59.65l-1.28-1.28h0a.65.65,0,0,0-.93,0h0l-1.72,1.72h0a.65.65,0,0,0,0,.93h0L21.91,17a7.54,7.54,0,0,0-.66,1.58H19.44a.67.67,0,0,0-.66.66v2.44A.66.66,0,0,0,19.44,22.36Zm.66-2.43h1.67a.67.67,0,0,0,.66-.57,5.51,5.51,0,0,1,.86-2.06h0a.67.67,0,0,0-.09-.85L22,15.28l.79-.79L24,15.67h0a.66.66,0,0,0,.86.06,5.61,5.61,0,0,1,2.07-.85l-.12-.65.13.65a.66.66,0,0,0,.53-.65V12.56h1.12v1.68a.66.66,0,0,0,.57.65,5.53,5.53,0,0,1,1.05.32h0a6.11,6.11,0,0,1,1,.54h0a.65.65,0,0,0,.84-.09l1.18-1.17.79.79-1.19,1.18h0a.67.67,0,0,0-.06.86,5.85,5.85,0,0,1,.86,2.08l.64-.13-.65.13a.66.66,0,0,0,.66.53H36v1.12H34.28a.65.65,0,0,0-.65.57,5.53,5.53,0,0,1-.32,1.05,5.18,5.18,0,0,1-.55,1h0a.67.67,0,0,0,.09.85L34,25.7l-.79.79-1.19-1.18h0a.65.65,0,0,0-.85-.07,5.67,5.67,0,0,1-2.08.86l.13.64-.13-.64a.65.65,0,0,0-.53.65v1.67H27.47V26.74a.67.67,0,0,0-.57-.65,5.8,5.8,0,0,1-2.07-.86h0a.65.65,0,0,0-.84.09l-1.18,1.17L22,25.7l1.18-1.18h0a.66.66,0,0,0,.06-.86,5.65,5.65,0,0,1-.85-2.08l-.65.13.65-.13a.66.66,0,0,0-.66-.53H20.1Z" transform="translate(-0.52 5.47)"/><path class="cls-1" d="M28,24.58a4.09,4.09,0,0,0,0-8.18h0a4.09,4.09,0,0,0,0,8.18Zm-2-6a2.78,2.78,0,1,1-.81,2,2.77,2.77,0,0,1,.81-2Z" transform="translate(-0.52 5.47)"/><image width="256" height="256" transform="translate(0) scale(0.21 0.23)" xlink:href="../../../../../../Downloads/herramientas-y-utensilios.png"/></svg>